<?xml version="1.0" standalone="no"?>
<!DOCTYPE svg PUBLIC "-//W3C//DTD SVG 20010904//EN"
 "http://www.w3.org/TR/2001/REC-SVG-20010904/DTD/svg10.dtd">
<svg version="1.0" xmlns="http://www.w3.org/2000/svg"
 width="820.000000pt" height="1085.000000pt" viewBox="0 0 820.000000 1085.000000"
 preserveAspectRatio="xMidYMid meet">

<g transform="translate(0.000000,1085.000000) scale(0.100000,-0.100000)"
fill="#000000" stroke="none">
<path d="M3815 10434 c-283 -45 -449 -122 -627 -293 -178 -170 -283 -356 -356
-626 -20 -77 -27 -124 -27 -202 l0 -101 -45 4 c-25 3 -61 9 -80 14 -98 27
-515 -2 -703 -49 -100 -25 -254 -85 -294 -114 -46 -34 -121 -126 -134 -165 -6
-19 -9 -62 -7 -96 4 -69 22 -98 128 -209 164 -173 489 -330 853 -411 25 -6 27
-10 27 -59 0 -56 -20 -140 -46 -199 l-17 -38 -134 0 c-103 0 -154 -5 -215 -21
-210 -53 -383 -175 -449 -316 -17 -37 -46 -99 -64 -138 -18 -38 -40 -87 -48
-107 l-16 -37 -34 14 c-82 34 -230 39 -314 11 -96 -32 -215 -123 -269 -206
-16 -25 -32 -47 -36 -50 -23 -18 -76 -214 -77 -288 0 -13 -12 -38 -28 -56 -52
-62 -63 -76 -63 -85 0 -5 -4 -11 -8 -13 -13 -5 -129 -201 -148 -250 -10 -24
-23 -50 -29 -58 -7 -8 -17 -31 -23 -50 -6 -19 -17 -57 -26 -85 -60 -195 -51
-390 26 -543 52 -104 172 -226 278 -283 25 -13 47 -27 50 -31 7 -9 247 -98
345 -127 39 -12 90 -28 115 -36 73 -23 170 -37 252 -37 66 1 80 -2 104 -23 15
-13 52 -36 83 -52 52 -26 64 -28 171 -28 108 0 120 2 193 34 76 33 78 33 125
18 26 -9 74 -23 107 -32 83 -22 405 -146 405 -156 0 -4 -38 -37 -85 -73 -84
-65 -86 -66 -148 -66 -83 -1 -129 -23 -200 -99 -32 -33 -60 -61 -62 -61 -2 0
-20 30 -41 68 -55 98 -188 227 -284 274 -149 72 -266 98 -447 98 -102 0 -149
-5 -230 -25 -196 -47 -364 -151 -468 -289 -44 -59 -62 -73 -151 -121 -162 -87
-224 -170 -265 -355 -10 -47 -19 -119 -19 -160 0 -143 74 -457 137 -580 7 -14
13 -30 13 -35 0 -6 27 -59 60 -118 63 -114 134 -215 217 -309 45 -52 55 -72
102 -215 104 -320 208 -489 343 -560 47 -25 63 -28 148 -28 88 1 104 4 220 47
l125 47 55 -15 c80 -22 261 -13 360 19 154 49 292 137 370 236 l45 57 75 -76
c253 -259 595 -430 1075 -539 127 -29 222 -36 485 -35 285 0 426 11 565 44 89
21 95 18 95 -39 0 -18 5 -63 11 -100 57 -350 111 -494 208 -555 l37 -24 11
-109 c23 -216 88 -383 192 -490 111 -114 258 -195 441 -244 72 -20 110 -23
245 -23 136 0 172 3 240 22 128 37 224 82 311 148 44 34 92 65 105 69 47 14
145 54 204 85 133 68 204 180 234 370 14 84 14 371 1 480 -26 208 -89 450
-158 602 -22 48 -31 86 -33 130 l-3 62 35 8 c361 86 699 359 826 668 63 151
78 236 78 430 -1 182 -13 256 -65 395 -76 202 -230 393 -372 460 -34 17 -36
20 -40 79 -15 178 -177 338 -403 397 -38 10 -94 19 -122 19 -46 0 -58 5 -90
34 -133 118 -463 305 -711 401 -40 16 -69 31 -65 35 4 4 59 23 122 44 273 89
503 254 634 453 106 163 164 373 154 561 l-6 104 48 61 c145 187 211 367 211
572 0 276 -132 518 -380 696 -61 44 -113 71 -210 109 l-95 38 -42 159 c-73
280 -141 460 -275 727 -281 565 -639 980 -1080 1255 -370 231 -713 348 -1048
356 -85 2 -168 1 -185 -1z m415 -303 c129 -29 206 -54 326 -105 121 -51 259
-125 250 -133 -3 -3 -12 0 -21 7 -13 11 -14 10 -9 -5 6 -14 4 -16 -7 -9 -8 4
-24 7 -36 5 -14 -1 -23 3 -23 10 0 8 -3 10 -10 3 -6 -6 -50 -6 -119 -1 -84 7
-151 5 -283 -8 -158 -16 -216 -22 -227 -24 -3 -1 4 -8 15 -16 16 -13 12 -13
-21 1 -93 39 -140 47 -275 47 -117 1 -144 -2 -200 -23 -158 -56 -308 -178
-388 -317 -23 -39 -42 -76 -42 -82 0 -6 -4 -11 -10 -11 -5 0 -10 -8 -10 -17 0
-14 -2 -15 -9 -5 -6 10 -12 7 -25 -13 -10 -15 -20 -24 -23 -22 -2 3 3 17 12
31 10 14 13 26 7 26 -12 0 35 136 74 213 69 136 187 271 303 345 73 48 187 94
286 116 96 21 347 15 465 -13z m625 -269 c-3 -3 -11 0 -18 7 -9 10 -8 11 6 5
10 -3 15 -9 12 -12z m-916 -68 c100 -28 172 -72 251 -153 147 -150 207 -353
166 -561 -19 -95 -77 -223 -130 -284 l-33 -40 -104 46 c-136 61 -355 146 -497
193 -61 20 -114 40 -116 44 -2 3 28 74 68 156 l72 150 21 -55 c11 -30 32 -92
47 -137 15 -46 31 -83 34 -83 4 1 54 41 112 89 58 49 106 88 107 87 2 -2 -4
-76 -13 -165 -9 -89 -14 -164 -13 -165 2 -2 50 3 107 12 l102 15 0 46 c0 69
-31 605 -36 610 -2 2 -65 -46 -141 -107 -76 -62 -140 -108 -144 -104 -4 4 -33
80 -64 170 -32 89 -61 162 -64 162 -6 -1 -353 -514 -360 -533 -2 -6 30 -40 70
-77 l74 -68 -127 36 -128 36 0 80 c0 161 59 311 165 425 159 170 367 234 574
175z m-695 -1468 c111 -56 346 -179 524 -271 657 -341 942 -453 1235 -485 55
-6 134 -8 175 -4 l74 7 -7 -34 c-14 -63 -82 -219 -131 -300 -61 -101 -141
-185 -186 -194 -98 -22 -186 -99 -212 -186 -20 -65 -20 -63 0 -128 16 -55 79
-135 115 -146 15 -5 19 -16 19 -53 1 -130 126 -236 257 -218 126 17 347 204
493 416 70 103 117 148 191 182 79 37 153 52 249 52 163 -2 291 -55 406 -169
210 -208 255 -514 116 -780 -73 -139 -195 -262 -317 -319 -154 -73 -276 -100
-445 -99 -143 0 -205 10 -383 59 l-128 36 -41 -48 c-264 -310 -685 -571 -1068
-661 -146 -34 -370 -43 -490 -18 -166 33 -370 128 -505 235 -80 64 -209 199
-268 282 -68 96 -68 99 -5 77 41 -15 76 -19 156 -17 l103 3 35 -64 c105 -189
278 -358 408 -396 106 -32 183 -10 254 70 81 92 112 227 117 505 2 128 8 203
19 245 9 33 16 74 16 91 0 32 13 44 48 44 33 0 118 48 161 91 104 103 161 231
168 379 6 111 -6 182 -46 266 -36 76 -62 99 -110 98 -40 -1 -56 -9 -281 -127
-224 -117 -403 -169 -621 -180 -85 -4 -86 -5 -143 -51 -176 -143 -482 -217
-771 -187 -327 35 -568 212 -666 488 -32 90 -37 264 -11 374 63 264 214 424
461 491 100 28 341 30 443 5 212 -52 421 -210 580 -437 l18 -25 -11 29 c-21
61 -91 183 -145 255 -39 53 -54 81 -50 95 2 12 17 64 32 116 24 84 28 112 28
250 1 145 -1 157 -22 192 -47 76 -129 69 -194 -17 -42 -54 -88 -166 -115 -273
l-17 -69 -39 15 c-35 14 -37 18 -31 46 36 168 115 349 191 435 50 57 138 131
155 131 6 0 101 -47 212 -104z m-1797 -1226 l30 -11 0 -132 c-1 -105 4 -150
22 -219 l22 -87 -40 -79 c-48 -95 -71 -180 -71 -260 0 -119 64 -258 142 -311
37 -25 39 -28 34 -71 -11 -104 -102 -268 -205 -371 -101 -101 -168 -134 -271
-134 -90 0 -153 28 -254 111 -125 103 -186 234 -186 398 1 223 99 446 309 694
52 61 61 78 56 100 -14 67 50 213 127 291 79 79 195 112 285 81z m299 -795
c53 -54 186 -135 221 -135 6 0 16 -6 22 -14 9 -10 3 -19 -30 -40 -88 -59 -180
-71 -259 -35 -138 62 -190 206 -130 362 l22 58 48 -69 c26 -37 74 -95 106
-127z m449 -192 c-15 -40 -17 -117 -5 -169 22 -89 103 -165 235 -219 l55 -22
-49 -81 c-112 -186 -240 -325 -347 -378 -72 -35 -170 -44 -227 -21 -20 9 -37
20 -37 24 0 5 15 17 34 27 46 25 119 97 162 160 38 57 89 180 99 241 6 36 2
31 -40 -45 -57 -104 -113 -178 -179 -236 -99 -87 -253 -140 -371 -128 -64 7
-211 49 -219 63 -3 5 20 24 52 44 159 98 309 326 356 538 5 24 11 27 70 31
104 9 229 78 281 157 19 29 24 31 79 31 51 0 57 -2 51 -17z m4704 -1569 c108
-28 163 -74 176 -148 l7 -36 -84 0 c-95 0 -143 -13 -159 -41 -12 -23 -13 -22
87 -38 103 -15 235 -66 320 -123 87 -58 187 -171 237 -266 76 -146 126 -368
113 -504 -33 -356 -363 -674 -813 -785 -212 -52 -393 -33 -528 55 -60 39 -132
110 -154 151 -13 24 -16 22 64 40 28 6 60 13 72 17 19 5 22 2 21 -27 -1 -22 6
-38 22 -51 30 -24 46 -23 77 8 23 23 25 31 20 82 -7 72 -77 212 -150 302 -61
75 -93 91 -131 66 -35 -22 -35 -64 0 -97 14 -13 39 -43 56 -67 l29 -42 -28
-11 c-15 -7 -66 -14 -113 -16 -113 -6 -181 18 -240 84 -75 86 -110 284 -77
440 38 175 165 364 332 491 l30 23 -40 -5 c-22 -3 -79 -25 -127 -49 -98 -50
-98 -50 -98 39 0 185 271 419 570 493 169 41 382 48 509 15z m-4252 -171 c47
-110 -80 -513 -196 -627 -43 -42 -60 -42 -85 -3 -58 87 -26 307 72 507 57 116
100 158 165 159 23 1 31 -6 44 -36z m-1842 -233 c44 -224 203 -624 365 -921
33 -60 71 -143 86 -186 53 -156 153 -333 237 -420 l41 -42 -47 -21 c-30 -14
-55 -18 -73 -14 -72 18 -164 176 -250 429 -42 124 -53 146 -98 195 -192 212
-368 622 -383 892 -7 115 10 173 60 213 l32 25 7 -33 c3 -17 14 -70 23 -117z
m3046 83 c123 -61 205 -172 231 -313 31 -164 -59 -343 -210 -417 -50 -24 -69
-28 -147 -28 -78 0 -97 4 -147 28 -71 35 -160 124 -196 197 -24 49 -27 66 -27
160 0 92 4 113 28 171 86 205 287 291 468 202z m2773 -1845 c3 -18 7 -66 11
-106 4 -60 12 -86 45 -145 107 -196 193 -612 176 -852 -16 -219 -52 -302 -149
-343 l-28 -12 6 68 c3 37 8 83 10 103 7 55 -13 326 -36 484 -25 173 -70 405
-108 550 -16 61 -32 147 -36 192 l-7 82 49 4 c26 2 51 4 55 5 4 1 9 -13 12
-30z"/>
<path d="M3890 7853 c-94 -84 -169 -309 -177 -531 -6 -148 6 -204 54 -242 105
-83 236 91 298 395 21 103 24 255 6 318 -29 99 -109 126 -181 60z"/>
<path d="M6025 6593 c-108 -23 -189 -66 -264 -142 -173 -173 -191 -372 -45
-499 60 -53 139 -83 236 -90 65 -4 82 -1 105 14 l28 19 -83 6 c-161 12 -270
95 -280 212 -5 69 16 116 68 152 43 30 145 65 193 66 l32 1 -35 10 c-19 6 -63
8 -97 5 l-63 -5 20 28 c55 77 182 161 302 201 37 12 65 26 62 30 -8 13 -100 9
-179 -8z"/>
<path d="M7042 3918 c-19 -19 -14 -64 22 -203 44 -163 57 -196 101 -240 29
-28 43 -35 76 -35 79 0 114 82 74 176 -15 37 -162 257 -196 293 -22 23 -58 28
-77 9z"/>
<path d="M6622 3748 c-7 -7 -12 -26 -12 -42 0 -53 59 -289 86 -343 50 -104
165 -128 209 -43 36 70 12 132 -126 318 -77 104 -95 122 -118 122 -15 0 -32
-5 -39 -12z"/>
</g>
</svg>
